{
  "accessors": [
    {
      "bufferView": 2,
      "componentType": 5126,
      "count": 6799,
      "max": [
        2.146601915359497,
        1.4360519647598267,
        10.911114692687988
      ],
      "min": [
        -1.6583930253982544,
        -3.083034038543701,
        -0.07011900097131729
      ],
      "type": "VEC3"
    },
    {
      "bufferView": 2,
      "byteOffset": 81588,
      "componentType": 5126,
      "count": 6799,
      "max": [
        0.9999986290931702,
        0.9979490637779236,
        0.9999951124191284
      ],
      "min": [
        -0.9998347163200378,
        -0.9998541474342346,
        -0.996823251247406
      ],
      "type": "VEC3"
    },
    {
      "bufferView": 1,
      "componentType": 5126,
      "count": 6799,
      "max": [
        0.9996920228004456,
        0.9991000294685364
      ],
      "min": [
        0.0003279999946244061,
        0.0004400000034365803
      ],
      "type": "VEC2"
    },
    {
      "bufferView": 0,
      "componentType": 5125,
      "count": 24027,
      "type": "SCALAR"
    }
  ],
  "asset": {
    "extras": {
      "author": "Huargenn (https://sketchfab.com/Huargenn)",
      "license": "CC-BY-4.0 (http://creativecommons.org/licenses/by/4.0/)",
      "source": "https://sketchfab.com/3d-models/estatua-statue-907ae2bb4f23423db76b7ec9cfe6b0e9",
      "title": "Estatua / Statue"
    },
    "generator": "Sketchfab-12.67.0",
    "version": "2.0"
  },
  "bufferViews": [
    {
      "buffer": 0,
      "byteLength": 96108,
      "name": "floatBufferViews",
      "target": 34963
    },
    {
      "buffer": 0,
      "byteLength": 54392,
      "byteOffset": 96108,
      "byteStride": 8,
      "name": "floatBufferViews",
      "target": 34962
    },
    {
      "buffer": 0,
      "byteLength": 163176,
      "byteOffset": 150500,
      "byteStride": 12,
      "name": "floatBufferViews",
      "target": 34962
    }
  ],
  "buffers": [
    {
      "byteLength": 313676,
      "uri": "scene.bin"
    }
  ],
  "images": [
    {
      "uri": "textures/Stone_-_Granite_Italian_Rough_baseColor.jpeg"
    }
  ],
  "materials": [
    {
      "doubleSided": true,
      "name": "Stone_-_Granite_Italian_Rough",
      "pbrMetallicRoughness": {
        "baseColorTexture": {
          "index": 0
        },
        "metallicFactor": 0.0,
        "roughnessFactor": 0.6
      }
    }
  ],
  "meshes": [
    {
      "name": "Object_0",
      "primitives": [
        {
          "attributes": {
            "NORMAL": 1,
            "POSITION": 0,
            "TEXCOORD_0": 2
          },
          "indices": 3,
          "material": 0,
          "mode": 4
        }
      ]
    }
  ],
  "nodes": [
    {
      "children": [
        1
      ],
      "matrix": [
        1.0,
        0.0,
        0.0,
        0.0,
        0.0,
        2.220446049250313e-16,
        -1.0,
        0.0,
        0.0,
        1.0,
        2.220446049250313e-16,
        0.0,
        0.0,
        0.0,
        0.0,
        1.0
      ],
      "name": "Sketchfab_model"
    },
    {
      "children": [
        2
      ],
      "name": "f078ca8318a64516aaed9231f005291f.obj.cleaner"
    },
    {
      "mesh": 0,
      "name": "Object_2"
    }
  ],
  "samplers": [
    {
      "magFilter": 9729,
      "minFilter": 9987,
      "wrapS": 10497,
      "wrapT": 10497
    }
  ],
  "scene": 0,
  "scenes": [
    {
      "name": "Sketchfab_Scene",
      "nodes": [
        0
      ]
    }
  ],
  "textures": [
    {
      "sampler": 0,
      "source": 0
    }
  ]
}
